<svg xmlns="http://www.w3.org/2000/svg" viewBox="0 0 814.43 293.35"><defs><style>.cls-1 {
  fill: #fff;
}

</style></defs><g id="Calque_2" data-name="Calque 2"><g id="Layer_1" data-name="Layer 1"><path class="cls-1" d="M32.08,110.16H0c4.36,0,8.25-4.17,8.25-9V9.19C8.25,4.16,4.36,0,0,0H23.67V101.14C23.67,106.17,27.57,110.16,32.08,110.16Zm21.18-65.4a25.47,25.47,0,0,0,6.39-17.18V76.33A25.27,25.27,0,0,0,53.26,59a20,20,0,0,0-15.42-7.11A20,20,0,0,0,53.26,44.76ZM80.05,0V36.6A35.88,35.88,0,0,0,69.77,10.93Q59.5,0,45,0Z"></path><path class="cls-1" d="M97.64,110.16c4.2,0,7.94-4,7.94-9V9.19c0-5-3.58-9.19-7.94-9.19h31.92c-4.51,0-8.4,4.34-8.4,9.19v92c0,5,3.58,9,8.4,9Z"></path><path class="cls-1" d="M174.72,0V110.16H150.58c4.83,0,8.41-4,8.41-9V9.19c0-5-3.58-9.19-8.41-9.19Zm29,60.37c-4.2-4.86-9.19-7.29-15.11-7.29,6.08,0,11.06-2.43,15.27-7.11a24.74,24.74,0,0,0,6.23-17.17V77.37A24.7,24.7,0,0,0,203.69,60.37Zm16.82-49.44Q210.24,0,195.75,0h35.19V36.6A35.37,35.37,0,0,0,220.51,10.93ZM222.38,98c7.32-8.15,10.9-17.86,10.9-29.49v41.64H196.37C206.49,110.16,215.21,106.17,222.38,98Z"></path><path class="cls-1" d="M286.22,0c-4.36,0-7.94,4.34-7.94,9.19v101H253.83c4.82,0,8.56-4,8.56-9.37V9.19C262.39,3.82,258.81,0,254,0Zm39.71,98c7.32-8.15,10.91-17.86,10.91-29.49v41.64H299.77C309.89,110.16,318.61,106.17,325.93,98Z"></path><path class="cls-1" d="M376.69,0V110.16H353.18c4.36,0,8.1-4.17,8.1-9V9.19c0-5-3.74-9.19-8.1-9.19Zm56.07,14.57c9.5,9.72,14.17,23.25,14.17,40.42,0,17.52-4.67,31.05-14.17,40.77-9.34,9.54-21.18,14.4-35.66,14.4,11,0,19.31-5.21,24.91-15.62,5.77-10.4,8.57-23.59,8.57-39.55,0-16.3-3-29.49-8.72-39.72S407.84,0,397.1,0C411.42,0,423.26,4.86,432.76,14.57Z"></path><path class="cls-1" d="M544.57,78.93c0,18-12.46,31.23-34.26,31.23,13.54,0,22.73-8.68,22.73-21.34C533,73,525.57,66.62,508.13,63l-4.83-.87c-13.86-2.77-23.21-7.46-27.72-14.22C471.22,41.11,470,35.22,470,26.72,470,10.75,482.58,0,503.61,0,489.28,0,480.4,8.15,480.4,19.43c0,6.76,1.41,12,4.37,15.44s9,6.07,18.06,7.63l5.3,1Q544.56,49.27,544.57,78.93ZM482.12,97.84c7.63,8.15,17,12.32,28,12.32H470.59v-42A41.9,41.9,0,0,0,482.12,97.84Zm46.25-87.26A33,33,0,0,0,503.76,0h35V35.91A34.59,34.59,0,0,0,528.37,10.58Z"></path><path class="cls-1" d="M639.86,95.24c5.77,9.89,14,14.92,24.77,14.92-14.49,0-26.32-4.69-35.67-14C619.77,86.56,615.1,73,615.1,55.34c0-17.87,4.67-31.4,14-40.94S650.3,0,664.63,0c-10.91,0-19.16,5.2-24.92,15.61s-8.41,23.6-8.41,39.73C631.3,72,634.1,85.35,639.86,95.24ZM700.29,14.4c9.35,9.54,14,23.24,14,40.94,0,17.87-4.67,31.4-14,40.77-9.19,9.36-21.18,14-35.66,14,11,0,19.31-5.21,25.07-15.44s8.72-23.42,8.72-39.38q0-25-8.88-40.07C683.78,5,675.37,0,664.63,0,679.11,0,691,4.86,700.29,14.4Z"></path><path class="cls-1" d="M766.47,110.16H734.38c4.37,0,8.26-4.17,8.26-9V9.19c0-5-3.89-9.19-8.26-9.19h23.68V101.14C758.06,106.17,762,110.16,766.47,110.16Zm21.18-65.4A25.51,25.51,0,0,0,794,27.58V76.33A25.31,25.31,0,0,0,787.65,59a20.05,20.05,0,0,0-15.42-7.11A20.05,20.05,0,0,0,787.65,44.76ZM814.43,0V36.6a35.87,35.87,0,0,0-10.27-25.67Q793.87,0,779.39,0Z"></path><path class="cls-1" d="M28.5,183.19l70.08,94v16.14H89.39L13.55,192.21c-3.74-5-7-8.5-13.55-9ZM25.07,281c7.48,8.15,16.51,12.32,27,12.32H4.83c4.83,0,9-4.34,9-9.72V251C13.86,262.64,17.6,272.7,25.07,281Zm82.55-97.84c-4.83,0-9,4.68-9,10.23V224.3c0-11.45-3.58-21.16-10.59-29.14s-15.42-12-25.23-12h44.86Z"></path><path class="cls-1" d="M187.19,183.19c-6.08,9.54-48.44,92.81-46.57,99.58,2,6.59,6.85,10.06,14.48,10.58H111.65q10.75-.53,18.22-10.93Zm0,59.85V183.19h15.73V293.35H179.56a8.87,8.87,0,0,0,7.63-9v-3.82c.15-7.11-.94-12-3-14.57s-22.08-6.25-29.71-6.25C165.74,259.52,187,254.14,187.19,243ZM232,229.33a24.34,24.34,0,0,0,6.23-16.3v46.66A25.06,25.06,0,0,0,232,243.56a18.9,18.9,0,0,0-14.48-7.29A19.67,19.67,0,0,0,232,229.33Zm27.1-10.93A36.7,36.7,0,0,0,248.55,194a32.74,32.74,0,0,0-23.21-10.76h33.8Zm-33,75c9.5-.52,17.75-4.51,24.45-12.15,6.85-7.63,10.44-16.82,10.9-27.75v39.9Z"></path><path class="cls-1" d="M309.58,199.32c-5.76,10.58-8.56,23.94-8.56,39.9,0,16.31,3,29.49,8.72,39.38s14,14.75,24.6,14.75c-14.32,0-26.16-4.69-35.5-13.88C289.65,270.1,285,256.74,285,239.22s4.67-31.22,14-41.11,21.18-14.92,35.35-14.92Q318.23,183.19,309.58,199.32Zm51.55,82.4c7.32-7.8,10.9-17.17,10.9-28.27v39.9H334.81C345.09,293.35,353.81,289.53,361.13,281.72ZM372,183.19v38.86c0-10.76-3.58-20-10.74-27.41a33.58,33.58,0,0,0-25.7-11.45Z"></path><path class="cls-1" d="M425.91,183.19c-4.36,0-8,4.34-8,9.19v101H393.51c4.83,0,8.57-4,8.57-9.37v-91.6c0-5.37-3.58-9.19-8.41-9.19Zm39.71,98c7.32-8.15,10.9-17.86,10.9-29.49v41.64H439.46C449.58,293.35,458.3,289.36,465.62,281.2Z"></path><path class="cls-1" d="M520,283.63c4.67,6.42,11.53,9.72,20.72,9.72-14.18,0-24.92-3.82-32.24-11.28s-10.9-20.82-10.9-39.72V193.42c0-5.55-4.21-10.23-9-10.23h33.8c-5.14,0-9.19,4.68-9.19,10.23v55.69C513.11,265.59,515.45,277,520,283.63Zm73.36-100.44c-5.14,0-9.19,4.68-9.19,10.23v48.93c0,18.9-3.74,32.26-11.22,39.72s-18.22,11.28-32.23,11.28c18.06,0,27.72-11.63,27.72-44.24V193.42c0-5.55-4-10.23-9-10.23h34Z"></path><path class="cls-1" d="M634.11,183.19V293.35H610.59c4.36,0,8.1-4.17,8.1-9V192.38c0-5-3.74-9.19-8.1-9.19Zm56.06,14.57c9.5,9.72,14.18,23.25,14.18,40.42,0,17.52-4.68,31.05-14.18,40.77-9.34,9.54-21.18,14.4-35.66,14.4,11.06,0,19.31-5.21,24.92-15.62,5.76-10.4,8.56-23.59,8.56-39.55,0-16.31-3-29.49-8.72-39.73s-14-15.26-24.76-15.26C668.84,183.19,680.67,188.05,690.17,197.76Z"></path><path class="cls-1" d="M752,202.1c-3.27,9.89-21.34,73.21-16.51,80.49,4.83,7.11,48.59,10.76,57,10.76H709.63a15.8,15.8,0,0,0,15.11-10.93Zm47.81,79.8c2.65,7.63,7.32,11.45,13.71,11.45h-27l-5-12.84c-3.74-9.89-6.07-13.88-12.46-16.48C766,262.64,761.8,262,756.35,262h-.47c11.84,0,16-7.46,11.53-18.74L752,202.1l7.17-23.42Z"></path></g></g></svg>