<svg xmlns="http://www.w3.org/2000/svg" viewBox="0 0 814.43 293.35"><defs><style>.cls-1{fill:#fff}</style></defs><g id="Calque_2" data-name="Calque 2"><g id="Layer_1" data-name="Layer 1"><path class="cls-1" d="M32.08 110.16H0c4.36 0 8.25-4.17 8.25-9V9.19C8.25 4.16 4.36 0 0 0h23.67v101.14c0 5.03 3.9 9.02 8.41 9.02Zm21.18-65.4a25.47 25.47 0 0 0 6.39-17.18v48.75A25.27 25.27 0 0 0 53.26 59a20 20 0 0 0-15.42-7.11 20 20 0 0 0 15.42-7.13ZM80.05 0v36.6a35.88 35.88 0 0 0-10.28-25.67Q59.5 0 45 0ZM97.64 110.16c4.2 0 7.94-4 7.94-9V9.19c0-5-3.58-9.19-7.94-9.19h31.92c-4.51 0-8.4 4.34-8.4 9.19v92c0 5 3.58 9 8.4 9ZM174.72 0v110.16h-24.14c4.83 0 8.41-4 8.41-9V9.19c0-5-3.58-9.19-8.41-9.19Zm29 60.37c-4.2-4.86-9.19-7.29-15.11-7.29 6.08 0 11.06-2.43 15.27-7.11a24.74 24.74 0 0 0 6.23-17.17v48.57a24.7 24.7 0 0 0-6.42-17Zm16.82-49.44Q210.24 0 195.75 0h35.19v36.6a35.37 35.37 0 0 0-10.43-25.67ZM222.38 98c7.32-8.15 10.9-17.86 10.9-29.49v41.64h-36.91c10.12.01 18.84-3.98 26.01-12.15ZM286.22 0c-4.36 0-7.94 4.34-7.94 9.19v101h-24.45c4.82 0 8.56-4 8.56-9.37V9.19c0-5.37-3.58-9.19-8.39-9.19Zm39.71 98c7.32-8.15 10.91-17.86 10.91-29.49v41.64h-37.07c10.12.01 18.84-3.98 26.16-12.15ZM376.69 0v110.16h-23.51c4.36 0 8.1-4.17 8.1-9V9.19c0-5-3.74-9.19-8.1-9.19Zm56.07 14.57c9.5 9.72 14.17 23.25 14.17 40.42 0 17.52-4.67 31.05-14.17 40.77-9.34 9.54-21.18 14.4-35.66 14.4 11 0 19.31-5.21 24.91-15.62 5.77-10.4 8.57-23.59 8.57-39.55 0-16.3-3-29.49-8.72-39.72S407.84 0 397.1 0c14.32 0 26.16 4.86 35.66 14.57ZM544.57 78.93c0 18-12.46 31.23-34.26 31.23 13.54 0 22.73-8.68 22.73-21.34C533 73 525.57 66.62 508.13 63l-4.83-.87c-13.86-2.77-23.21-7.46-27.72-14.22-4.36-6.8-5.58-12.69-5.58-21.19C470 10.75 482.58 0 503.61 0c-14.33 0-23.21 8.15-23.21 19.43 0 6.76 1.41 12 4.37 15.44s9 6.07 18.06 7.63l5.3 1q36.43 5.77 36.44 35.43Zm-62.45 18.91c7.63 8.15 17 12.32 28 12.32h-39.53v-42a41.9 41.9 0 0 0 11.53 29.68Zm46.25-87.26A33 33 0 0 0 503.76 0h35v35.91a34.59 34.59 0 0 0-10.39-25.33ZM639.86 95.24c5.77 9.89 14 14.92 24.77 14.92-14.49 0-26.32-4.69-35.67-14-9.19-9.6-13.86-23.16-13.86-40.82 0-17.87 4.67-31.4 14-40.94S650.3 0 664.63 0c-10.91 0-19.16 5.2-24.92 15.61s-8.41 23.6-8.41 39.73c0 16.66 2.8 30.01 8.56 39.9Zm60.43-80.84c9.35 9.54 14 23.24 14 40.94 0 17.87-4.67 31.4-14 40.77-9.19 9.36-21.18 14-35.66 14 11 0 19.31-5.21 25.07-15.44s8.72-23.42 8.72-39.38q0-25-8.88-40.07C683.78 5 675.37 0 664.63 0c14.48 0 26.37 4.86 35.66 14.4ZM766.47 110.16h-32.09c4.37 0 8.26-4.17 8.26-9V9.19c0-5-3.89-9.19-8.26-9.19h23.68v101.14c0 5.03 3.94 9.02 8.41 9.02Zm21.18-65.4A25.51 25.51 0 0 0 794 27.58v48.75A25.31 25.31 0 0 0 787.65 59a20.05 20.05 0 0 0-15.42-7.11 20.05 20.05 0 0 0 15.42-7.13ZM814.43 0v36.6a35.87 35.87 0 0 0-10.27-25.67Q793.87 0 779.39 0ZM28.5 183.19l70.08 94v16.14h-9.19L13.55 192.21c-3.74-5-7-8.5-13.55-9ZM25.07 281c7.48 8.15 16.51 12.32 27 12.32H4.83c4.83 0 9-4.34 9-9.72V251c.03 11.64 3.77 21.7 11.24 30Zm82.55-97.84c-4.83 0-9 4.68-9 10.23v30.91c0-11.45-3.58-21.16-10.59-29.14s-15.42-12-25.23-12h44.86ZM187.19 183.19c-6.08 9.54-48.44 92.81-46.57 99.58 2 6.59 6.85 10.06 14.48 10.58h-43.45q10.75-.53 18.22-10.93Zm0 59.85v-59.85h15.73v110.16h-23.36a8.87 8.87 0 0 0 7.63-9v-3.82c.15-7.11-.94-12-3-14.57s-22.08-6.25-29.71-6.25c11.26-.19 32.52-5.57 32.71-16.71ZM232 229.33a24.34 24.34 0 0 0 6.23-16.3v46.66a25.06 25.06 0 0 0-6.23-16.13 18.9 18.9 0 0 0-14.48-7.29 19.67 19.67 0 0 0 14.48-6.94Zm27.1-10.93a36.7 36.7 0 0 0-10.55-24.4 32.74 32.74 0 0 0-23.21-10.76h33.8Zm-33 75c9.5-.52 17.75-4.51 24.45-12.15 6.85-7.63 10.44-16.82 10.9-27.75v39.9ZM309.58 199.32c-5.76 10.58-8.56 23.94-8.56 39.9 0 16.31 3 29.49 8.72 39.38s14 14.75 24.6 14.75c-14.32 0-26.16-4.69-35.5-13.88-9.19-9.37-13.84-22.73-13.84-40.25s4.67-31.22 14-41.11 21.18-14.92 35.35-14.92q-16.12 0-24.77 16.13Zm51.55 82.4c7.32-7.8 10.9-17.17 10.9-28.27v39.9h-37.22c10.28 0 19-3.82 26.32-11.63ZM372 183.19v38.86c0-10.76-3.58-20-10.74-27.41a33.58 33.58 0 0 0-25.7-11.45ZM425.91 183.19c-4.36 0-8 4.34-8 9.19v101h-24.4c4.83 0 8.57-4 8.57-9.37v-91.6c0-5.37-3.58-9.19-8.41-9.19Zm39.71 98c7.32-8.15 10.9-17.86 10.9-29.49v41.64h-37.06c10.12.01 18.84-3.98 26.16-12.14ZM520 283.63c4.67 6.42 11.53 9.72 20.72 9.72-14.18 0-24.92-3.82-32.24-11.28s-10.9-20.82-10.9-39.72v-48.93c0-5.55-4.21-10.23-9-10.23h33.8c-5.14 0-9.19 4.68-9.19 10.23v55.69c-.08 16.48 2.26 27.89 6.81 34.52Zm73.36-100.44c-5.14 0-9.19 4.68-9.19 10.23v48.93c0 18.9-3.74 32.26-11.22 39.72s-18.22 11.28-32.23 11.28c18.06 0 27.72-11.63 27.72-44.24v-55.69c0-5.55-4-10.23-9-10.23h34ZM634.11 183.19v110.16h-23.52c4.36 0 8.1-4.17 8.1-9v-91.97c0-5-3.74-9.19-8.1-9.19Zm56.06 14.57c9.5 9.72 14.18 23.25 14.18 40.42 0 17.52-4.68 31.05-14.18 40.77-9.34 9.54-21.18 14.4-35.66 14.4 11.06 0 19.31-5.21 24.92-15.62 5.76-10.4 8.56-23.59 8.56-39.55 0-16.31-3-29.49-8.72-39.73s-14-15.26-24.76-15.26c14.33 0 26.16 4.86 35.66 14.57ZM752 202.1c-3.27 9.89-21.34 73.21-16.51 80.49 4.83 7.11 48.59 10.76 57 10.76h-82.86a15.8 15.8 0 0 0 15.11-10.93Zm47.81 79.8c2.65 7.63 7.32 11.45 13.71 11.45h-27l-5-12.84c-3.74-9.89-6.07-13.88-12.46-16.48-3.06-1.39-7.26-2.03-12.71-2.03h-.47c11.84 0 16-7.46 11.53-18.74L752 202.1l7.17-23.42Z"/></g></g></svg>